#!OML:ASF F:\VICON\USERDATA\INSTALL\rory7\rory7.ASF
:FULLY-SPECIFIED
:DEGREES
1152
root -0.0993463 23.9496 3.80547 -180.834 -1.42217 169.153
lowerback 30.8956 1.20331 -1.49238
upperback 6.78003 -0.758494 -0.346996
thorax -9.29311 -1.06937 0.879108
lowerneck -12.9543 1.01656 -7.82009
upperneck 22.1975 1.99728 1.63092
head 9.00235 0.147505 2.04564
rclavicle -2.46493e-014 -6.04305e-014
rhumerus 47.9634 -3.55075 -56.3034
rradius 78.3967
rwrist -22.7503
rhand -29.2729 -372.815
rfingers 7.12502
rthumb -2.61527 317.221
lclavicle -2.46493e-014 -6.04305e-014
lhumerus 59.6976 7.36902 53.2402
lradius 57.0784
lwrist 48.6377
lhand -19.8328 40.7239
lfingers 7.12502
lthumb 6.50126 70.6041
rfemur -71.5393 -7.94472 7.52513
rtibia 96.8436
rfoot -18.1901 18.2737
rtoes 7.66405
lfemur -16.377 4.32963 -34.7066
ltibia 27.4906
lfoot -1.34043 4.26816
ltoes -24.7347
1153
root -0.136214 23.9194 3.83961 -180.908 -1.20574 169.022
lowerback 31.0025 1.2302 -1.69093
upperback 6.75924 -0.811044 -0.460545
thorax -9.36839 -1.09308 0.887956
lowerneck -12.7082 1.02504 -7.76731
upperneck 21.976 1.98183 1.60716
head 8.88176 0.150805 2.02191
rclavicle 7.95139e-015 -1.59028e-015
rhumerus 48.3291 -3.62869 -56.4711
rradius 77.8006
rwrist -22.7967
rhand -29.6748 -372.291
rfingers 7.12502
rthumb -3.00344 317.75
lclavicle 7.95139e-015 -1.59028e-015
lhumerus 60.1102 7.48023 53.3844
lradius 56.6335
lwrist 48.3684
lhand -19.6961 40.7467
lfingers 7.12502
lthumb 6.63321 70.6228
rfemur -71.9496 -8.08898 7.26851
rtibia 97.0881
rfoot -17.5778 18.7108
rtoes 7.69142
lfemur -16.633 4.71683 -35.0298
ltibia 27.8609
lfoot -1.60603 4.27333
ltoes -24.3101
1154
root -0.17499 23.8948 3.8729 -180.924 -1.0321 169.099
lowerback 30.9882 1.19989 -1.66518
upperback 6.78805 -0.85558 -0.485688
thorax -9.32821 -1.11992 0.861274
lowerneck -12.5534 1.01315 -7.88293
upperneck 21.7576 1.96921 1.67335
head 8.77686 0.15298 2.0584
rclavicle -1.98785e-014 -4.45278e-014
rhumerus 48.8053 -3.7111 -56.5463
rradius 77.1914
rwrist -22.8901
rhand -30.5853 -371.493
rfingers 7.12502
rthumb -3.88266 318.562
lclavicle -1.98785e-014 -4.45278e-014
lhumerus 60.4742 7.62942 53.5925
lradius 56.2774
lwrist 48.0732
lhand -19.7282 40.5638
lfingers 7.12502
lthumb 6.60223 70.4409
rfemur -72.3353 -8.22472 7.24811
rtibia 97.238
rfoot -17.0467 19.0806
rtoes 7.60058
lfemur -16.9975 4.92102 -35.1099
ltibia 28.3083
lfoot -1.85717 4.31184
ltoes -23.6901
1155
root -0.215767 23.8698 3.90612 -180.951 -0.988589 169.227
lowerback 31.0975 1.10668 -1.48502
upperback 6.77124 -0.931237 -0.53864
thorax -9.40055 -1.16006 0.727784
lowerneck -12.3528 1.01948 -7.90543
upperneck 21.6242 1.92497 1.85126
head 8.69255 0.154667 2.11434
rclavicle -1.74931e-014 -1.90833e-014
rhumerus 49.1203 -3.85317 -56.5997
rradius 76.6028
rwrist -22.9369
rhand -30.8443 -371.031
rfingers 7.12502
rthumb -4.13276 319.029
lclavicle -1.74931e-014 -1.90833e-014
lhumerus 60.8568 7.67972 53.7919
lradius 55.9452
lwrist 47.8366
lhand -19.5752 40.6677
lfingers 7.12502
lthumb 6.74988 70.5401
rfemur -72.7002 -8.46806 7.27169
rtibia 97.3935
rfoot -16.6104 19.4052
rtoes 7.02284
lfemur -17.3368 4.98432 -35.1421
ltibia 28.7412
lfoot -2.06537 4.34085
ltoes -23.3188
1156
root -0.255235 23.8457 3.93698 -180.958 -0.815967 169.414
lowerback 31.1529 1.0501 -1.29956
upperback 6.76723 -0.956504 -0.581507
thorax -9.4334 -1.17793 0.582571
lowerneck -12.4742 1.07895 -8.03762
upperneck 21.8435 1.96307 2.18734
head 8.77995 0.187271 2.25869
rclavicle 7.15625e-015 1.27222e-014
rhumerus 49.4945 -3.98088 -56.5992
rradius 76.0457
rwrist -23.0073
rhand -30.78 -371.188
rfingers 7.12502
rthumb -4.07073 318.871
lclavicle 7.15625e-015 1.27222e-014
lhumerus 61.3022 7.83436 53.9029
lradius 55.6176
lwrist 47.7435
lhand -19.268 40.7218
lfingers 7.12502
lthumb 7.04645 70.5845
rfemur -73.101 -8.50955 7.33819
rtibia 97.501
rfoot -15.9996 19.6749
rtoes 7.04407
lfemur -17.7113 5.12757 -35.1029
ltibia 29.1166
lfoot -2.15332 4.37524
ltoes -23.0882
1157
root -0.292678 23.8362 3.97149 -181.048 -0.607501 169.553
lowerback 31.2668 1.06134 -1.2251
upperback 6.841 -0.949232 -0.56792
thorax -9.40367 -1.18911 0.554391
lowerneck -12.8939 1.17398 -8.50313
upperneck 22.311 2.10973 2.69382
head 8.99586 0.25188 2.53689
rclavicle -1.51076e-014 -1.27222e-014
rhumerus 49.9513 -4.15187 -56.6169
rradius 75.5561
rwrist -23.0522
rhand -30.6511 -371.224
rfingers 7.12502
rthumb -3.9462 318.832
lclavicle -1.51076e-014 -1.27222e-014
lhumerus 61.8931 8.08101 54.0351
lradius 55.1882
lwrist 47.7045
lhand -18.9391 40.6794
lfingers 7.12502
lthumb 7.36398 70.5312
rfemur -73.2919 -8.56148 7.3629
rtibia 97.482
rfoot -15.322 20.0994
rtoes 7.38893
lfemur -17.998 5.27485 -35.0889
ltibia 29.4974
lfoot -2.20344 4.45229
ltoes -22.88
1158
root -0.331238 23.8366 4.00468 -181.102 -0.346161 169.635
lowerback 31.3322 1.123 -1.23386
upperback 6.86939 -0.888122 -0.553926
thorax -9.40291 -1.16692 0.553604
lowerneck -12.8791 1.20577 -8.29272
upperneck 22.4853 2.16033 2.35099
head 9.05911 0.241077 2.39095
rclavicle 1.43125e-014 3.49861e-014
rhumerus 50.2486 -4.30171 -56.6033
rradius 75.016
rwrist -23.1128
rhand -30.5801 -370.938
rfingers 7.12502
rthumb -3.87762 319.118
lclavicle 1.43125e-014 3.49861e-014
lhumerus 62.4189 8.15128 54.0121
lradius 54.6312
lwrist 47.4158
lhand -19.2083 41.0599
lfingers 7.12502
lthumb 7.10408 70.9207
rfemur -73.472 -8.66716 7.3524
rtibia 97.4355
rfoot -14.727 20.5521
rtoes 7.59012
lfemur -18.2843 5.44413 -35.1334
ltibia 29.8669
lfoot -2.34007 4.54141
ltoes -22.4498
1159
root -0.366045 23.8311 4.03532 -181.067 -0.00388159 170.078
lowerback 31.2208 -0.975763 -2.33066
upperback 6.88342 -0.157889 -0.647415
thorax -9.2917 0.762621 0.54735
lowerneck -12.2559 1.22396 -7.55022
upperneck 21.8996 2.17608 1.43781
head 8.76586 0.233336 1.94183
rclavicle -4.77083e-015 -3.97569e-015
rhumerus 50.612 -4.3826 -56.5351
rradius 74.5646
rwrist -23.194
rhand -30.509 -370.857
rfingers 7.12502
rthumb -3.80904 319.197
lclavicle -4.77083e-015 -3.97569e-015
lhumerus 62.6978 8.32098 53.9279
lradius 54.2945
lwrist 47.1455
lhand -19.7523 41.687
lfingers 7.12502
lthumb 6.57891 71.5648
rfemur -73.748 -8.45598 7.73541
rtibia 97.3857
rfoot -14.1957 20.7419
rtoes 7.70202
lfemur -18.7143 5.67052 -34.7714
ltibia 30.2577
lfoot -2.46188 4.63175
ltoes -22.0816
1160
root -0.397298 23.8171 4.06454 -181.046 0.357137 170.397
lowerback 31.1905 -0.889015 -2.14317
upperback 6.83765 -0.00999973 -0.650579
thorax -9.33723 0.818717 0.38004
lowerneck -11.6835 1.22848 -7.14255
upperneck 21.5869 2.07802 1.24596
head 8.56435 0.208875 1.78906
rclavicle 2.38542e-015 -8.74653e-015
rhumerus 50.7383 -4.5675 -56.5041
rradius 74.0465
rwrist -23.3303
rhand -29.5416 -371.122
rfingers 7.12502
rthumb -2.87475 318.918
lclavicle 2.38542e-015 -8.74653e-015
lhumerus 62.8806 8.22765 53.8527
lradius 54.1384
lwrist 47.0376
lhand -19.9494 41.9334
lfingers 7.12502
lthumb 6.38871 71.817
rfemur -74.1049 -8.19327 7.99137
rtibia 97.3986
rfoot -13.7091 20.8586
rtoes 7.39835
lfemur -19.1529 5.9222 -34.5339
ltibia 30.7193
lfoot -2.62319 4.71198
ltoes -21.8002
1161
root -0.42757 23.7975 4.09462 -181.06 0.642804 170.451
lowerback 31.2938 -0.708633 -1.97946
upperback 6.66408 0.201741 -0.871516
thorax -9.59334 0.89758 -0.0483506
lowerneck -11.0061 1.16636 -6.5049
upperneck 21.5701 1.77157 1.21447
head 8.45093 0.101143 1.63298
rclavicle -8.74653e-015 -1.51076e-014
rhumerus 50.3373 -5.03063 -56.5114
rradius 73.6112
rwrist -23.4288
rhand -27.9481 -371.911
rfingers 7.12502
rthumb -1.33581 318.113
lclavicle -8.74653e-015 -1.51076e-014
lhumerus 63.2159 7.56824 53.7151
lradius 53.8831
lwrist 46.9369
lhand -19.9807 41.8104
lfingers 7.12502
lthumb 6.35842 71.6949
rfemur -74.4688 -8.07524 7.9471
rtibia 97.503
rfoot -13.4039 21.0703
rtoes 6.23212
lfemur -19.6167 6.22079 -34.5978
ltibia 31.2969
lfoot -2.81546 4.67617
ltoes -22.0311
1162
root -0.46275 23.7756 4.12441 -181.116 0.847415 170.557
lowerback 31.41 -0.754785 -1.94138
upperback 6.7529 0.180218 -0.881413
thorax -9.54648 0.897239 -0.0748784
lowerneck -11.4882 1.14885 -6.54079
upperneck 21.9138 1.79724 1.1701
head 8.65634 0.0933207 1.63369
rclavicle -2.26615e-014 -4.05521e-014
rhumerus 50.7926 -5.15472 -56.5317
rradius 73.0527
rwrist -23.4622
rhand -27.2174 -371.961
rfingers 7.12502
rthumb -0.630097 318.061
lclavicle -2.26615e-014 -4.05521e-014
lhumerus 63.4189 7.84972 53.7045
lradius 53.7368
lwrist 46.8573
lhand -19.7395 41.6653
lfingers 7.12502
lthumb 6.59129 71.5427
rfemur -74.8237 -8.17345 7.99426
rtibia 97.6494
rfoot -13.3363 21.2923
rtoes 4.66488
lfemur -19.9933 6.40081 -34.617
ltibia 31.8261
lfoot -2.96805 4.70521
ltoes -21.9738
1163
root -0.495434 23.7573 4.15317 -181.162 1.05961 170.842
lowerback 31.5999 -0.795024 -1.79984
upperback 6.75049 0.183173 -0.796986
thorax -9.64208 0.897816 -0.064925
lowerneck -11.814 1.16617 -6.72894
upperneck 22.3427 1.84926 1.22298
head 8.85924 0.0847812 1.69414
rclavicle -1.15295e-014 -1.11319e-014
rhumerus 51.1481 -5.15329 -56.5115
rradius 72.5535
rwrist -23.5054
rhand -27.3237 -371.686
rfingers 7.12502
rthumb -0.732717 318.335
lclavicle -1.15295e-014 -1.11319e-014
lhumerus 63.5436 8.1136 53.6708
lradius 53.5157
lwrist 46.8516
lhand -19.6015 41.5492
lfingers 7.12502
lthumb 6.72453 71.4224
rfemur -75.1387 -8.19879 8.26925
rtibia 97.7705
rfoot -13.3249 21.4247
rtoes 2.80914
lfemur -20.3482 6.47878 -34.4189
ltibia 32.2817
lfoot -3.09005 4.83943
ltoes -22.0604
1164
root -0.524599 23.7509 4.18171 -181.182 1.37624 171.11
lowerback 31.702 -0.763827 -1.76127
upperback 6.74396 0.238076 -0.723512
thorax -9.69994 0.921456 -0.0260232
lowerneck -11.8053 1.22461 -6.69684
upperneck 22.4276 1.9334 1.1217
head 8.88509 0.108463 1.66331
rclavicle 3.18055e-015 1.98785e-014
rhumerus 51.5256 -5.1454 -56.4865
rradius 72.0667
rwrist -23.6308
rhand -27.3322 -371.691
rfingers 7.12502
rthumb -0.740979 318.331
lclavicle 3.18055e-015 1.98785e-014
lhumerus 63.7473 8.29433 53.6632
lradius 53.2004
lwrist 46.7803
lhand -19.5859 41.3402
lfingers 7.12502
lthumb 6.73955 71.2129
rfemur -75.3973 -7.93175 8.46751
rtibia 97.8602
rfoot -13.5538 21.2803
rtoes 0.28159
lfemur -20.6603 6.58775 -34.2047
ltibia 32.6574
lfoot -3.26975 5.00711
ltoes -21.5478
1165
root -0.550846 23.7389 4.20848 -181.258 1.72644 171.223
lowerback 31.7465 -0.683979 -1.87384
upperback 6.81557 0.321194 -0.721547
thorax -9.63852 0.968657 0.00938397
lowerneck -11.7397 1.25883 -6.63299
upperneck 22.3714 1.97081 1.08405
head 8.85301 0.129293 1.6427
rclavicle 5.56597e-015 7.95139e-015
rhumerus 51.8899 -5.2414 -56.5081
rradius 71.542
rwrist -23.7283
rhand -27.2152 -371.535
rfingers 7.12502
rthumb -0.627915 318.487
lclavicle 5.56597e-015 7.95139e-015
lhumerus 64.128 8.43002 53.7496
lradius 52.8209
lwrist 46.6048
lhand -19.4145 41.2211
lfingers 7.12502
lthumb 6.90505 71.0885
rfemur -75.6216 -7.69946 8.52203
rtibia 98.0301
rfoot -14.1525 21.0103
rtoes -3.41065
lfemur -20.8653 6.76504 -34.1444
ltibia 32.9777
lfoot -3.49529 5.14335
ltoes -20.6794
1166
root -0.576963 23.7258 4.23044 -181.333 2.13217 171.36
lowerback 31.779 -0.593555 -1.96792
upperback 6.8648 0.414693 -0.728852
thorax -9.59774 1.01708 0.0196993
lowerneck -11.8475 1.31165 -6.65635
upperneck 22.5875 2.03012 1.1364
head 8.94349 0.147985 1.67311
rclavicle -1.11319e-014 -7.95139e-015
rhumerus 52.243 -5.29824 -56.5094
rradius 70.9499
rwrist -23.7747
rhand -26.9914 -371.008
rfingers 7.12502
rthumb -0.411783 319.013
lclavicle -1.11319e-014 -7.95139e-015
lhumerus 64.3347 8.58495 53.7578
lradius 52.6588
lwrist 46.4574
lhand -19.1111 41.1312
lfingers 7.12502
lthumb 7.19794 70.9888
rfemur -75.8638 -7.52491 8.64075
rtibia 98.2714
rfoot -14.7638 20.7687
rtoes -7.15063
lfemur -21.046 6.98641 -34.0639
ltibia 33.2468
lfoot -3.65364 5.33627
ltoes -19.8615
